<svg id="Layer_1" data-name="Layer 1" xmlns="http://www.w3.org/2000/svg" viewBox="0 0 40 40"><defs><style>.cls-1{fill:#1e1e1e;}.cls-2{fill:#fff;}</style></defs><rect class="cls-1" width="40" height="40"/><g id="Group_1" data-name="Group 1"><path id="Rectangle_3" data-name="Rectangle 3" d="M0,1.94A1.94,1.94,0,0,1,1.94,0H38.06A1.94,1.94,0,0,1,40,1.94V38.06A1.94,1.94,0,0,1,38.06,40H1.94A1.94,1.94,0,0,1,0,38.06Z"/><g id="RK"><path class="cls-2" d="M17.51,29l-4.07-7H11.7v7H8V11h6.92a8.06,8.06,0,0,1,3.64.75,5,5,0,0,1,2.25,2,5.23,5.23,0,0,1,.77,2.79,5.36,5.36,0,0,1-1.06,3.22,5.45,5.45,0,0,1-3.14,2L21.79,29ZM11.7,19.28h3.09a3.13,3.13,0,0,0,2.24-.7,2.61,2.61,0,0,0,.74-2A2.41,2.41,0,0,0,17,14.69a3.13,3.13,0,0,0-2.24-.7H11.7Z"/><path class="cls-2" d="M35.33,29l-6.71-8v8h-3.7V11h3.7v8.07L35.33,11h4.46l-7.61,8.92L40,29Z"/></g></g></svg>