<svg width="186" height="52" viewBox="0 0 186 52" fill="none" xmlns="http://www.w3.org/2000/svg">
<path d="M0 2.51613C0 1.12651 1.12651 0 2.51613 0H49.4839C50.8735 0 52 1.12651 52 2.51613V49.4839C52 50.8735 50.8735 52 49.4839 52H2.51613C1.12651 52 0 50.8735 0 49.4839V2.51613Z" fill="white"/>
<path d="M23.4138 38L18.1034 29.0372H15.8276V38H11V15H20.0345C21.8966 15 23.4828 15.3185 24.7931 15.9556C26.1034 16.5707 27.0805 17.4164 27.7241 18.4928C28.3908 19.5473 28.7241 20.7335 28.7241 22.0516C28.7241 23.5673 28.2644 24.9403 27.3448 26.1705C26.4253 27.3787 25.0575 28.2135 23.2414 28.6748L29 38H23.4138ZM15.8276 25.5774H19.8621C21.1724 25.5774 22.1494 25.2808 22.7931 24.6877C23.4368 24.0726 23.7586 23.2268 23.7586 22.1504C23.7586 21.096 23.4368 20.2832 22.7931 19.712C22.1494 19.1189 21.1724 18.8223 19.8621 18.8223H15.8276V25.5774Z" fill="black"/>
<path d="M46.1103 38L37.6585 27.7521V38H33V15H37.6585V25.3138L46.1103 15H51.7338L42.1506 26.4011L52 38H46.1103Z" fill="black"/>
<path d="M55 26.0174C55 23.7254 55.5157 21.6782 56.5472 19.8758C57.6012 18.0512 59.0251 16.6382 60.819 15.6368C62.6353 14.6133 64.6647 14.1015 66.9071 14.1015C69.5307 14.1015 71.8291 14.769 73.8024 16.1041C75.7757 17.4393 77.1548 19.2862 77.9396 21.6449H72.5242C71.9861 20.5323 71.2236 19.6978 70.237 19.1415C69.2728 18.5852 68.1516 18.3071 66.8734 18.3071C65.5056 18.3071 64.2835 18.6297 63.2071 19.275C62.1532 19.8981 61.3235 20.7882 60.7181 21.9453C60.1351 23.1024 59.8435 24.4597 59.8435 26.0174C59.8435 27.5527 60.1351 28.9101 60.7181 30.0895C61.3235 31.2466 62.1532 32.1478 63.2071 32.7931C64.2835 33.4161 65.5056 33.7276 66.8734 33.7276C68.1516 33.7276 69.2728 33.4495 70.237 32.8932C71.2236 32.3146 71.9861 31.4691 72.5242 30.3565H77.9396C77.1548 32.7374 75.7757 34.5955 73.8024 35.9306C71.8515 37.2434 69.5531 37.8999 66.9071 37.8999C64.6647 37.8999 62.6353 37.3992 60.819 36.3979C59.0251 35.3743 57.6012 33.9613 56.5472 32.1589C55.5157 30.3565 55 28.3093 55 26.0174Z" fill="white"/>
<path d="M86.6707 13V37.6996H81.9617V13H86.6707Z" fill="white"/>
<path d="M90.1123 28.3872C90.1123 26.518 90.4823 24.8603 91.2223 23.4139C91.9847 21.9675 93.005 20.8549 94.2832 20.0761C95.5837 19.2973 97.0301 18.9079 98.6222 18.9079C100.012 18.9079 101.223 19.186 102.255 19.7423C103.309 20.2986 104.15 20.9996 104.778 21.8451V19.2083H109.52V37.6996H104.778V34.996C104.172 35.8638 103.331 36.587 102.255 37.1656C101.201 37.7219 99.9788 38 98.5885 38C97.0189 38 95.5837 37.5995 94.2832 36.7984C93.005 35.9973 91.9847 34.8736 91.2223 33.4272C90.4823 31.9586 90.1123 30.2786 90.1123 28.3872ZM104.778 28.4539C104.778 27.3191 104.553 26.3511 104.105 25.5501C103.656 24.7267 103.051 24.1037 102.288 23.6809C101.526 23.2359 100.708 23.0134 99.8331 23.0134C98.9585 23.0134 98.1513 23.2247 97.4113 23.6475C96.6713 24.0703 96.0658 24.6934 95.5949 25.5167C95.1465 26.3178 94.9222 27.2746 94.9222 28.3872C94.9222 29.4998 95.1465 30.4789 95.5949 31.3244C96.0658 32.1478 96.6713 32.7819 97.4113 33.227C98.1737 33.672 98.9809 33.8945 99.8331 33.8945C100.708 33.8945 101.526 33.6831 102.288 33.2603C103.051 32.8153 103.656 32.1923 104.105 31.3912C104.553 30.5679 104.778 29.5888 104.778 28.4539Z" fill="white"/>
<path d="M121.25 38C119.725 38 118.357 37.733 117.147 37.1989C115.936 36.6426 114.971 35.8972 114.254 34.9626C113.559 34.028 113.178 32.9933 113.11 31.8585H117.853C117.943 32.5705 118.29 33.1602 118.896 33.6275C119.523 34.0948 120.297 34.3284 121.216 34.3284C122.113 34.3284 122.809 34.1504 123.302 33.7944C123.818 33.4384 124.076 32.9822 124.076 32.4259C124.076 31.8251 123.762 31.3801 123.134 31.0908C122.528 30.7793 121.553 30.4455 120.207 30.0895C118.817 29.7557 117.673 29.4108 116.777 29.0547C115.902 28.6987 115.14 28.1535 114.489 27.4192C113.861 26.6849 113.548 25.6947 113.548 24.4486C113.548 23.425 113.839 22.4904 114.422 21.6449C115.027 20.7993 115.88 20.1317 116.978 19.6422C118.1 19.1526 119.411 18.9079 120.914 18.9079C123.134 18.9079 124.905 19.4642 126.228 20.5768C127.551 21.6671 128.28 23.1469 128.415 25.016H123.907C123.84 24.2817 123.526 23.7032 122.966 23.2804C122.427 22.8353 121.699 22.6128 120.779 22.6128C119.927 22.6128 119.266 22.7686 118.795 23.0801C118.346 23.3916 118.122 23.8255 118.122 24.3818C118.122 25.0049 118.436 25.4833 119.064 25.8171C119.692 26.1286 120.667 26.4513 121.99 26.785C123.336 27.1188 124.445 27.4637 125.32 27.8198C126.195 28.1758 126.946 28.7321 127.574 29.4887C128.224 30.223 128.56 31.202 128.583 32.4259C128.583 33.494 128.28 34.4508 127.675 35.2964C127.092 36.142 126.239 36.8095 125.118 37.2991C124.019 37.7664 122.73 38 121.25 38Z" fill="white"/>
<path d="M139.579 38C138.054 38 136.686 37.733 135.475 37.1989C134.265 36.6426 133.3 35.8972 132.583 34.9626C131.888 34.028 131.506 32.9933 131.439 31.8585H136.182C136.271 32.5705 136.619 33.1602 137.224 33.6275C137.852 34.0948 138.626 34.3284 139.545 34.3284C140.442 34.3284 141.137 34.1504 141.631 33.7944C142.146 33.4384 142.404 32.9822 142.404 32.4259C142.404 31.8251 142.09 31.3801 141.463 31.0908C140.857 30.7793 139.882 30.4455 138.536 30.0895C137.146 29.7557 136.002 29.4108 135.105 29.0547C134.231 28.6987 133.468 28.1535 132.818 27.4192C132.19 26.6849 131.876 25.6947 131.876 24.4486C131.876 23.425 132.168 22.4904 132.751 21.6449C133.356 20.7993 134.208 20.1317 135.307 19.6422C136.428 19.1526 137.74 18.9079 139.243 18.9079C141.463 18.9079 143.234 19.4642 144.557 20.5768C145.88 21.6671 146.609 23.1469 146.743 25.016H142.236C142.169 24.2817 141.855 23.7032 141.294 23.2804C140.756 22.8353 140.027 22.6128 139.108 22.6128C138.256 22.6128 137.594 22.7686 137.124 23.0801C136.675 23.3916 136.451 23.8255 136.451 24.3818C136.451 25.0049 136.765 25.4833 137.393 25.8171C138.021 26.1286 138.996 26.4513 140.319 26.785C141.664 27.1188 142.774 27.4637 143.649 27.8198C144.523 28.1758 145.275 28.7321 145.902 29.4887C146.553 30.223 146.889 31.202 146.912 32.4259C146.912 33.494 146.609 34.4508 146.003 35.2964C145.42 36.142 144.568 36.8095 143.447 37.2991C142.348 37.7664 141.059 38 139.579 38Z" fill="white"/>
<path d="M168.099 28.0534C168.099 28.721 168.055 29.3218 167.965 29.8558H154.342C154.455 31.1909 154.925 32.2368 155.755 32.9933C156.585 33.7499 157.605 34.1282 158.816 34.1282C160.565 34.1282 161.81 33.3827 162.55 31.8919H167.629C167.09 33.672 166.059 35.1406 164.534 36.2977C163.009 37.4326 161.137 38 158.917 38C157.123 38 155.508 37.6106 154.073 36.8318C152.661 36.0307 151.551 34.907 150.743 33.4606C149.959 32.0142 149.566 30.3453 149.566 28.4539C149.566 26.5403 149.959 24.8603 150.743 23.4139C151.528 21.9675 152.627 20.8549 154.04 20.0761C155.452 19.2973 157.078 18.9079 158.917 18.9079C160.688 18.9079 162.269 19.2862 163.66 20.0427C165.072 20.7993 166.16 21.8785 166.922 23.2804C167.707 24.66 168.099 26.251 168.099 28.0534ZM163.222 26.7183C163.2 25.5167 162.763 24.5599 161.91 23.8478C161.058 23.1135 160.016 22.7463 158.782 22.7463C157.616 22.7463 156.63 23.1024 155.822 23.8144C155.038 24.5042 154.555 25.4722 154.376 26.7183H163.222Z" fill="white"/>
<path d="M178.667 38C177.143 38 175.775 37.733 174.564 37.1989C173.353 36.6426 172.389 35.8972 171.671 34.9626C170.976 34.028 170.595 32.9933 170.528 31.8585H175.27C175.36 32.5705 175.707 33.1602 176.313 33.6275C176.941 34.0948 177.714 34.3284 178.634 34.3284C179.531 34.3284 180.226 34.1504 180.719 33.7944C181.235 33.4384 181.493 32.9822 181.493 32.4259C181.493 31.8251 181.179 31.3801 180.551 31.0908C179.946 30.7793 178.97 30.4455 177.625 30.0895C176.234 29.7557 175.091 29.4108 174.194 29.0547C173.319 28.6987 172.557 28.1535 171.907 27.4192C171.279 26.6849 170.965 25.6947 170.965 24.4486C170.965 23.425 171.256 22.4904 171.839 21.6449C172.445 20.7993 173.297 20.1317 174.396 19.6422C175.517 19.1526 176.829 18.9079 178.331 18.9079C180.551 18.9079 182.322 19.4642 183.645 20.5768C184.969 21.6671 185.697 23.1469 185.832 25.016H181.325C181.257 24.2817 180.943 23.7032 180.383 23.2804C179.845 22.8353 179.116 22.6128 178.197 22.6128C177.344 22.6128 176.683 22.7686 176.212 23.0801C175.764 23.3916 175.539 23.8255 175.539 24.3818C175.539 25.0049 175.853 25.4833 176.481 25.8171C177.109 26.1286 178.084 26.4513 179.407 26.785C180.753 27.1188 181.863 27.4637 182.737 27.8198C183.612 28.1758 184.363 28.7321 184.991 29.4887C185.641 30.223 185.978 31.202 186 32.4259C186 33.494 185.697 34.4508 185.092 35.2964C184.509 36.142 183.657 36.8095 182.536 37.2991C181.437 37.7664 180.147 38 178.667 38Z" fill="white"/>
</svg>
