<svg width="168" height="47" viewBox="0 0 168 47" fill="none" xmlns="http://www.w3.org/2000/svg">
<rect width="168" height="47" fill="transparent"/>
<path id="Rectangle 33" d="M0 2.27419C0 1.01819 1.01819 0 2.27419 0H44.7258C45.9818 0 47 1.01819 47 2.27419V44.7258C47 45.9818 45.9818 47 44.7258 47H2.27419C1.01819 47 0 45.9818 0 44.7258V2.27419Z" fill="black"/>
<g id="RK">
<path d="M20.6964 29L16.1207 20.8166H14.1597V29H10V8H17.7846C19.389 8 20.7558 8.29083 21.8849 8.87249C23.0139 9.4341 23.8558 10.2063 24.4104 11.1891C24.9848 12.1519 25.2721 13.235 25.2721 14.4384C25.2721 15.8223 24.8759 17.0759 24.0836 18.1991C23.2912 19.3023 22.1127 20.0645 20.5478 20.4857L25.5097 29H20.6964ZM14.1597 17.6576H17.636C18.7651 17.6576 19.6069 17.3868 20.1616 16.8453C20.7162 16.2837 20.9935 15.5115 20.9935 14.5287C20.9935 13.5659 20.7162 12.8238 20.1616 12.3023C19.6069 11.7607 18.7651 11.49 17.636 11.49H14.1597V17.6576Z" fill="white"/>
<path d="M40.7409 29L33.1941 19.6433V29H29.0344V8H33.1941V17.4169L40.7409 8H45.7623L37.2052 18.4097L46 29H40.7409Z" fill="white"/>
</g>
<g id="Classes">
<path d="M50 17.976C50 15.8674 50.4646 13.984 51.3937 12.3258C52.343 10.6471 53.6256 9.34713 55.2415 8.4259C56.8776 7.4842 58.7056 7.01335 60.7254 7.01335C63.0887 7.01335 65.159 7.6275 66.9365 8.85581C68.714 10.0841 69.9562 11.7833 70.6631 13.9533H65.7852C65.3004 12.9297 64.6137 12.162 63.7249 11.6502C62.8564 11.1384 61.8465 10.8825 60.6951 10.8825C59.463 10.8825 58.3622 11.1793 57.3927 11.773C56.4433 12.3462 55.696 13.1651 55.1506 14.2296C54.6255 15.2942 54.3629 16.5429 54.3629 17.976C54.3629 19.3885 54.6255 20.6373 55.1506 21.7223C55.696 22.7868 56.4433 23.6159 57.3927 24.2096C58.3622 24.7828 59.463 25.0694 60.6951 25.0694C61.8465 25.0694 62.8564 24.8135 63.7249 24.3017C64.6137 23.7695 65.3004 22.9915 65.7852 21.968H70.6631C69.9562 24.1584 68.714 25.8678 66.9365 27.0961C65.1792 28.304 63.1089 28.9079 60.7254 28.9079C58.7056 28.9079 56.8776 28.4473 55.2415 27.526C53.6256 26.5843 52.343 25.2844 51.3937 23.6262C50.4646 21.968 50 20.0846 50 17.976Z" fill="black"/>
<path d="M78.5278 6V28.7236H74.2861V6H78.5278Z" fill="black"/>
<path d="M81.6279 20.1562C81.6279 18.4366 81.9612 16.9114 82.6277 15.5808C83.3145 14.2501 84.2335 13.2265 85.3848 12.51C86.5563 11.7935 87.8592 11.4352 89.2932 11.4352C90.5456 11.4352 91.6363 11.6911 92.5654 12.2029C93.5148 12.7147 94.2722 13.3596 94.8378 14.1375V11.7116H99.1098V28.7236H94.8378V26.2363C94.2924 27.0347 93.5349 27.7 92.5654 28.2323C91.6161 28.7441 90.5153 29 89.263 29C87.8491 29 86.5563 28.6315 85.3848 27.8945C84.2335 27.1575 83.3145 26.1237 82.6277 24.7931C81.9612 23.4419 81.6279 21.8963 81.6279 20.1562ZM94.8378 20.2176C94.8378 19.1736 94.6358 18.283 94.2318 17.5461C93.8278 16.7886 93.2825 16.2154 92.5957 15.8264C91.909 15.417 91.1717 15.2123 90.384 15.2123C89.5962 15.2123 88.8691 15.4068 88.2025 15.7957C87.536 16.1847 86.9906 16.7579 86.5664 17.5154C86.1625 18.2523 85.9605 19.1326 85.9605 20.1562C85.9605 21.1798 86.1625 22.0806 86.5664 22.8585C86.9906 23.6159 87.536 24.1994 88.2025 24.6088C88.8893 25.0182 89.6164 25.223 90.384 25.223C91.1717 25.223 91.909 25.0285 92.5957 24.6395C93.2825 24.2301 93.8278 23.6569 94.2318 22.9199C94.6358 22.1624 94.8378 21.2617 94.8378 20.2176Z" fill="black"/>
<path d="M109.676 29C108.302 29 107.07 28.7543 105.979 28.263C104.889 27.7512 104.02 27.0654 103.374 26.2056C102.748 25.3458 102.404 24.3939 102.344 23.3498H106.616C106.696 24.0049 107.009 24.5474 107.555 24.9773C108.12 25.4072 108.817 25.6222 109.645 25.6222C110.453 25.6222 111.079 25.4584 111.524 25.1308C111.988 24.8033 112.221 24.3836 112.221 23.8718C112.221 23.3191 111.938 22.9097 111.372 22.6435C110.827 22.3569 109.948 22.0498 108.736 21.7223C107.484 21.4152 106.454 21.0979 105.646 20.7704C104.858 20.4428 104.172 19.9413 103.586 19.2657C103.02 18.5901 102.737 17.6791 102.737 16.5327C102.737 15.591 103 14.7312 103.525 13.9533C104.071 13.1753 104.838 12.5612 105.828 12.1108C106.838 11.6604 108.019 11.4352 109.373 11.4352C111.372 11.4352 112.968 11.947 114.16 12.9706C115.351 13.9737 116.008 15.3351 116.129 17.0547H112.069C112.009 16.3792 111.726 15.8469 111.221 15.4579C110.736 15.0485 110.08 14.8438 109.251 14.8438C108.484 14.8438 107.888 14.9871 107.464 15.2737C107.06 15.5603 106.858 15.9595 106.858 16.4713C106.858 17.0445 107.141 17.4846 107.706 17.7917C108.272 18.0783 109.15 18.3752 110.342 18.6822C111.554 18.9893 112.554 19.3066 113.342 19.6342C114.129 19.9617 114.806 20.4735 115.372 21.1696C115.957 21.8451 116.26 22.7459 116.281 23.8718C116.281 24.8545 116.008 25.7348 115.463 26.5127C114.937 27.2906 114.17 27.9048 113.16 28.3551C112.17 28.785 111.009 29 109.676 29Z" fill="black"/>
<path d="M126.186 29C124.812 29 123.58 28.7543 122.489 28.263C121.399 27.7512 120.53 27.0654 119.884 26.2056C119.258 25.3458 118.914 24.3939 118.854 23.3498H123.126C123.206 24.0049 123.519 24.5474 124.065 24.9773C124.63 25.4072 125.327 25.6222 126.155 25.6222C126.963 25.6222 127.589 25.4584 128.034 25.1308C128.498 24.8033 128.731 24.3836 128.731 23.8718C128.731 23.3191 128.448 22.9097 127.882 22.6435C127.337 22.3569 126.458 22.0498 125.246 21.7223C123.994 21.4152 122.964 21.0979 122.156 20.7704C121.368 20.4428 120.682 19.9413 120.096 19.2657C119.53 18.5901 119.247 17.6791 119.247 16.5327C119.247 15.591 119.51 14.7312 120.035 13.9533C120.581 13.1753 121.348 12.5612 122.338 12.1108C123.348 11.6604 124.529 11.4352 125.883 11.4352C127.882 11.4352 129.478 11.947 130.67 12.9706C131.861 13.9737 132.518 15.3351 132.639 17.0547H128.579C128.519 16.3792 128.236 15.8469 127.731 15.4579C127.246 15.0485 126.59 14.8438 125.761 14.8438C124.994 14.8438 124.398 14.9871 123.974 15.2737C123.57 15.5603 123.368 15.9595 123.368 16.4713C123.368 17.0445 123.651 17.4846 124.216 17.7917C124.782 18.0783 125.66 18.3752 126.852 18.6822C128.064 18.9893 129.064 19.3066 129.852 19.6342C130.639 19.9617 131.316 20.4735 131.882 21.1696C132.467 21.8451 132.77 22.7459 132.791 23.8718C132.791 24.8545 132.518 25.7348 131.973 26.5127C131.447 27.2906 130.68 27.9048 129.67 28.3551C128.68 28.785 127.519 29 126.186 29Z" fill="black"/>
<path d="M151.876 19.8491C151.876 20.4633 151.835 21.016 151.755 21.5073H139.484C139.585 22.7356 140.009 23.6978 140.757 24.3939C141.504 25.0899 142.423 25.4379 143.514 25.4379C145.089 25.4379 146.21 24.7521 146.877 23.3805H151.452C150.967 25.0182 150.038 26.3694 148.664 27.4339C147.291 28.478 145.604 29 143.605 29C141.989 29 140.534 28.6417 139.242 27.9252C137.969 27.1883 136.969 26.1544 136.242 24.8238C135.535 23.4931 135.182 21.9577 135.182 20.2176C135.182 18.4571 135.535 16.9114 136.242 15.5808C136.949 14.2501 137.939 13.2265 139.211 12.51C140.484 11.7935 141.948 11.4352 143.605 11.4352C145.2 11.4352 146.624 11.7833 147.877 12.4793C149.149 13.1753 150.129 14.1682 150.815 15.4579C151.522 16.7272 151.876 18.1909 151.876 19.8491ZM147.483 18.6208C147.462 17.5154 147.069 16.6351 146.301 15.98C145.533 15.3044 144.594 14.9666 143.483 14.9666C142.433 14.9666 141.544 15.2942 140.817 15.9493C140.11 16.5839 139.676 17.4744 139.514 18.6208H147.483Z" fill="black"/>
<path d="M161.395 29C160.022 29 158.789 28.7543 157.699 28.263C156.608 27.7512 155.739 27.0654 155.093 26.2056C154.467 25.3458 154.124 24.3939 154.063 23.3498H158.335C158.416 24.0049 158.729 24.5474 159.274 24.9773C159.84 25.4072 160.537 25.6222 161.365 25.6222C162.173 25.6222 162.799 25.4584 163.243 25.1308C163.708 24.8033 163.94 24.3836 163.94 23.8718C163.94 23.3191 163.657 22.9097 163.092 22.6435C162.546 22.3569 161.668 22.0498 160.456 21.7223C159.204 21.4152 158.173 21.0979 157.365 20.7704C156.578 20.4428 155.891 19.9413 155.305 19.2657C154.74 18.5901 154.457 17.6791 154.457 16.5327C154.457 15.591 154.719 14.7312 155.245 13.9533C155.79 13.1753 156.558 12.5612 157.547 12.1108C158.557 11.6604 159.739 11.4352 161.092 11.4352C163.092 11.4352 164.687 11.947 165.879 12.9706C167.071 13.9737 167.727 15.3351 167.849 17.0547H163.789C163.728 16.3792 163.445 15.8469 162.94 15.4579C162.455 15.0485 161.799 14.8438 160.971 14.8438C160.203 14.8438 159.607 14.9871 159.183 15.2737C158.779 15.5603 158.577 15.9595 158.577 16.4713C158.577 17.0445 158.86 17.4846 159.426 17.7917C159.991 18.0783 160.87 18.3752 162.062 18.6822C163.274 18.9893 164.273 19.3066 165.061 19.6342C165.849 19.9617 166.525 20.4735 167.091 21.1696C167.677 21.8451 167.98 22.7459 168 23.8718C168 24.8545 167.727 25.7348 167.182 26.5127C166.657 27.2906 165.889 27.9048 164.879 28.3551C163.89 28.785 162.728 29 161.395 29Z" fill="black"/>
</g>
<g id="Lets study we us">
<path d="M54.038 42.3407H56.8211V43.1563H53V35.4739H54.038V42.3407Z" fill="black"/>
<path d="M63.6267 39.9048C63.6267 40.0959 63.6152 40.2979 63.5924 40.511H58.5964C58.6345 41.1062 58.8436 41.5728 59.2238 41.9108C59.6116 42.2415 60.0793 42.4068 60.6268 42.4068C61.0754 42.4068 61.448 42.3076 61.7446 42.1092C62.0488 41.9035 62.2617 41.6316 62.3834 41.2936H63.5012C63.3339 41.8741 62.9993 42.348 62.4974 42.7154C61.9955 43.0755 61.372 43.2555 60.6268 43.2555C60.0336 43.2555 59.5013 43.1269 59.0299 42.8697C58.566 42.6126 58.201 42.2488 57.9349 41.7786C57.6687 41.3009 57.5356 40.7498 57.5356 40.1253C57.5356 39.5007 57.6649 38.9532 57.9235 38.483C58.182 38.0127 58.5432 37.6526 59.0071 37.4028C59.4785 37.1456 60.0184 37.017 60.6268 37.017C61.2199 37.017 61.7446 37.142 62.2009 37.3918C62.6571 37.6416 63.0069 37.987 63.2502 38.4279C63.5012 38.8614 63.6267 39.3537 63.6267 39.9048ZM62.5545 39.6954C62.5545 39.3133 62.467 38.9863 62.2921 38.7144C62.1172 38.4352 61.8777 38.2258 61.5735 38.0862C61.2769 37.9392 60.9462 37.8657 60.5811 37.8657C60.0565 37.8657 59.6078 38.0274 59.2352 38.3507C58.8702 38.674 58.6611 39.1222 58.6078 39.6954H62.5545Z" fill="black"/>
<path d="M66.2629 37.9429V41.503C66.2629 41.7969 66.3275 42.0063 66.4568 42.1313C66.586 42.2488 66.8104 42.3076 67.1298 42.3076H67.894V43.1563H66.9587C66.3807 43.1563 65.9473 43.0277 65.6583 42.7705C65.3694 42.5134 65.2249 42.0908 65.2249 41.503V37.9429H64.415V37.1162H65.2249V35.5952H66.2629V37.1162H67.894V37.9429H66.2629Z" fill="black"/>
<path d="M71.3645 43.2555C70.8854 43.2555 70.4558 43.1784 70.0755 43.024C69.6953 42.8624 69.395 42.642 69.1744 42.3627C68.9539 42.0762 68.8322 41.7492 68.8094 41.3818H69.8816C69.9121 41.683 70.0565 41.9292 70.3151 42.1202C70.5812 42.3113 70.9272 42.4068 71.3531 42.4068C71.7485 42.4068 72.0603 42.3223 72.2884 42.1533C72.5165 41.9843 72.6306 41.7712 72.6306 41.514C72.6306 41.2495 72.5089 41.0548 72.2656 40.9299C72.0222 40.7976 71.6458 40.669 71.1363 40.5441C70.6725 40.4265 70.2923 40.309 69.9957 40.1914C69.7067 40.0665 69.4558 39.8864 69.2429 39.6513C69.0376 39.4088 68.9349 39.0929 68.9349 38.7034C68.9349 38.3948 69.03 38.1119 69.2201 37.8547C69.4102 37.5975 69.6801 37.3955 70.0299 37.2485C70.3797 37.0942 70.7789 37.017 71.2276 37.017C71.9196 37.017 72.4785 37.186 72.9043 37.524C73.3302 37.8621 73.5583 38.325 73.5887 38.9128H72.5507C72.5279 38.5969 72.3948 38.3434 72.1515 38.1523C71.9158 37.9613 71.5964 37.8657 71.1934 37.8657C70.8208 37.8657 70.5242 37.9429 70.3037 38.0972C70.0831 38.2515 69.9729 38.4536 69.9729 38.7034C69.9729 38.9018 70.0375 39.0671 70.1668 39.1994C70.3037 39.3243 70.471 39.4272 70.6687 39.508C70.874 39.5815 71.1553 39.666 71.5127 39.7615C71.9614 39.8791 72.3264 39.9967 72.6078 40.1142C72.8891 40.2244 73.1287 40.3935 73.3264 40.6212C73.5317 40.849 73.6381 41.1466 73.6457 41.514C73.6457 41.8447 73.5507 42.1423 73.3606 42.4068C73.1705 42.6713 72.9005 42.8808 72.5507 43.0351C72.2085 43.182 71.8131 43.2555 71.3645 43.2555Z" fill="black"/>
<path d="M80.3648 43.2555C79.8858 43.2555 79.4561 43.1784 79.0759 43.024C78.6957 42.8624 78.3953 42.642 78.1748 42.3627C77.9543 42.0762 77.8326 41.7492 77.8098 41.3818H78.882C78.9124 41.683 79.0569 41.9292 79.3154 42.1202C79.5816 42.3113 79.9276 42.4068 80.3534 42.4068C80.7488 42.4068 81.0606 42.3223 81.2887 42.1533C81.5169 41.9843 81.6309 41.7712 81.6309 41.514C81.6309 41.2495 81.5093 41.0548 81.2659 40.9299C81.0226 40.7976 80.6462 40.669 80.1367 40.5441C79.6728 40.4265 79.2926 40.309 78.9961 40.1914C78.7071 40.0665 78.4562 39.8864 78.2432 39.6513C78.0379 39.4088 77.9353 39.0929 77.9353 38.7034C77.9353 38.3948 78.0303 38.1119 78.2204 37.8547C78.4105 37.5975 78.6805 37.3955 79.0303 37.2485C79.3801 37.0942 79.7793 37.017 80.2279 37.017C80.9199 37.017 81.4788 37.186 81.9047 37.524C82.3305 37.8621 82.5587 38.325 82.5891 38.9128H81.5511C81.5283 38.5969 81.3952 38.3434 81.1519 38.1523C80.9161 37.9613 80.5968 37.8657 80.1937 37.8657C79.8211 37.8657 79.5245 37.9429 79.304 38.0972C79.0835 38.2515 78.9732 38.4536 78.9732 38.7034C78.9732 38.9018 79.0379 39.0671 79.1672 39.1994C79.304 39.3243 79.4713 39.4272 79.669 39.508C79.8743 39.5815 80.1557 39.666 80.5131 39.7615C80.9618 39.8791 81.3268 39.9967 81.6081 40.1142C81.8895 40.2244 82.129 40.3935 82.3267 40.6212C82.532 40.849 82.6385 41.1466 82.6461 41.514C82.6461 41.8447 82.551 42.1423 82.3609 42.4068C82.1708 42.6713 81.9009 42.8808 81.5511 43.0351C81.2089 43.182 80.8135 43.2555 80.3648 43.2555Z" fill="black"/>
<path d="M85.3775 37.9429V41.503C85.3775 41.7969 85.4421 42.0063 85.5714 42.1313C85.7007 42.2488 85.925 42.3076 86.2444 42.3076H87.0086V43.1563H86.0733C85.4954 43.1563 85.0619 43.0277 84.7729 42.7705C84.484 42.5134 84.3395 42.0908 84.3395 41.503V37.9429H83.5296V37.1162H84.3395V35.5952H85.3775V37.1162H87.0086V37.9429H85.3775Z" fill="black"/>
<path d="M93.8097 37.1162V43.1563H92.7718V42.2635C92.5741 42.5721 92.2965 42.8146 91.9391 42.991C91.5893 43.16 91.2015 43.2445 90.7756 43.2445C90.289 43.2445 89.8517 43.149 89.4639 42.9579C89.0761 42.7595 88.7681 42.4656 88.54 42.0762C88.3195 41.6867 88.2092 41.2128 88.2092 40.6543V37.1162H89.2358V40.522C89.2358 41.1172 89.3917 41.5765 89.7034 41.8998C90.0152 42.2158 90.4411 42.3737 90.981 42.3737C91.5361 42.3737 91.9733 42.2084 92.2927 41.8778C92.6121 41.5471 92.7718 41.0658 92.7718 40.4339V37.1162H93.8097Z" fill="black"/>
<path d="M95.1745 40.1142C95.1745 39.497 95.3038 38.9569 95.5623 38.494C95.8209 38.0237 96.1745 37.66 96.6231 37.4028C97.0794 37.1456 97.5889 37.017 98.1516 37.017C98.6382 37.017 99.0907 37.1273 99.5089 37.3477C99.9272 37.5608 100.247 37.8437 100.467 38.1964V35H101.516V43.1563H100.467V42.021C100.262 42.3811 99.9576 42.6787 99.5546 42.9138C99.1515 43.1416 98.6801 43.2555 98.1402 43.2555C97.5851 43.2555 97.0794 43.1232 96.6231 42.8587C96.1745 42.5942 95.8209 42.2231 95.5623 41.7455C95.3038 41.2679 95.1745 40.7241 95.1745 40.1142ZM100.467 40.1253C100.467 39.6697 100.372 39.2729 100.182 38.9349C99.9918 38.5969 99.7333 38.3397 99.4063 38.1633C99.0869 37.9796 98.7333 37.8878 98.3455 37.8878C97.9577 37.8878 97.6041 37.976 97.2847 38.1523C96.9653 38.3287 96.7106 38.5858 96.5205 38.9238C96.3304 39.2619 96.2353 39.6587 96.2353 40.1142C96.2353 40.5772 96.3304 40.9813 96.5205 41.3267C96.7106 41.6647 96.9653 41.9255 97.2847 42.1092C97.6041 42.2856 97.9577 42.3737 98.3455 42.3737C98.7333 42.3737 99.0869 42.2856 99.4063 42.1092C99.7333 41.9255 99.9918 41.6647 100.182 41.3267C100.372 40.9813 100.467 40.5808 100.467 40.1253Z" fill="black"/>
<path d="M108.654 37.1162L104.89 46H103.818L105.05 43.0902L102.529 37.1162H103.681L105.643 42.01L107.582 37.1162H108.654Z" fill="black"/>
<path d="M121.065 37.1162L119.115 43.1563H118.043L116.537 38.3617L115.031 43.1563H113.959L111.997 37.1162H113.058L114.495 42.1864L116.047 37.1162H117.107L118.624 42.1974L120.039 37.1162H121.065Z" fill="black"/>
<path d="M127.799 39.9048C127.799 40.0959 127.787 40.2979 127.765 40.511H122.769C122.807 41.1062 123.016 41.5728 123.396 41.9108C123.784 42.2415 124.251 42.4068 124.799 42.4068C125.248 42.4068 125.62 42.3076 125.917 42.1092C126.221 41.9035 126.434 41.6316 126.555 41.2936H127.673C127.506 41.8741 127.171 42.348 126.67 42.7154C126.168 43.0755 125.544 43.2555 124.799 43.2555C124.206 43.2555 123.673 43.1269 123.202 42.8697C122.738 42.6126 122.373 42.2488 122.107 41.7786C121.841 41.3009 121.708 40.7498 121.708 40.1253C121.708 39.5007 121.837 38.9532 122.096 38.483C122.354 38.0127 122.715 37.6526 123.179 37.4028C123.651 37.1456 124.191 37.017 124.799 37.017C125.392 37.017 125.917 37.142 126.373 37.3918C126.829 37.6416 127.179 37.987 127.422 38.4279C127.673 38.8614 127.799 39.3537 127.799 39.9048ZM126.727 39.6954C126.727 39.3133 126.639 38.9863 126.464 38.7144C126.289 38.4352 126.05 38.2258 125.746 38.0862C125.449 37.9392 125.118 37.8657 124.753 37.8657C124.229 37.8657 123.78 38.0274 123.407 38.3507C123.042 38.674 122.833 39.1222 122.78 39.6954H126.727Z" fill="black"/>
<path d="M137.753 37.1162V43.1563H136.715V42.2635C136.518 42.5721 136.24 42.8146 135.883 42.991C135.533 43.16 135.145 43.2445 134.719 43.2445C134.233 43.2445 133.795 43.149 133.407 42.9579C133.02 42.7595 132.712 42.4656 132.484 42.0762C132.263 41.6867 132.153 41.2128 132.153 40.6543V37.1162H133.179V40.522C133.179 41.1172 133.335 41.5765 133.647 41.8998C133.959 42.2158 134.385 42.3737 134.925 42.3737C135.48 42.3737 135.917 42.2084 136.236 41.8778C136.556 41.5471 136.715 41.0658 136.715 40.4339V37.1162H137.753Z" fill="black"/>
<path d="M141.719 43.2555C141.24 43.2555 140.81 43.1784 140.43 43.024C140.05 42.8624 139.749 42.642 139.529 42.3627C139.308 42.0762 139.187 41.7492 139.164 41.3818H140.236C140.266 41.683 140.411 41.9292 140.669 42.1202C140.935 42.3113 141.281 42.4068 141.707 42.4068C142.103 42.4068 142.415 42.3223 142.643 42.1533C142.871 41.9843 142.985 41.7712 142.985 41.514C142.985 41.2495 142.863 41.0548 142.62 40.9299C142.376 40.7976 142 40.669 141.491 40.5441C141.027 40.4265 140.647 40.309 140.35 40.1914C140.061 40.0665 139.81 39.8864 139.597 39.6513C139.392 39.4088 139.289 39.0929 139.289 38.7034C139.289 38.3948 139.384 38.1119 139.574 37.8547C139.764 37.5975 140.034 37.3955 140.384 37.2485C140.734 37.0942 141.133 37.017 141.582 37.017C142.274 37.017 142.833 37.186 143.259 37.524C143.684 37.8621 143.913 38.325 143.943 38.9128H142.905C142.882 38.5969 142.749 38.3434 142.506 38.1523C142.27 37.9613 141.951 37.8657 141.548 37.8657C141.175 37.8657 140.878 37.9429 140.658 38.0972C140.437 38.2515 140.327 38.4536 140.327 38.7034C140.327 38.9018 140.392 39.0671 140.521 39.1994C140.658 39.3243 140.825 39.4272 141.023 39.508C141.228 39.5815 141.51 39.666 141.867 39.7615C142.316 39.8791 142.681 39.9967 142.962 40.1142C143.243 40.2244 143.483 40.3935 143.681 40.6212C143.886 40.849 143.992 41.1466 144 41.514C144 41.8447 143.905 42.1423 143.715 42.4068C143.525 42.6713 143.255 42.8808 142.905 43.0351C142.563 43.182 142.167 43.2555 141.719 43.2555Z" fill="black"/>
</g>
</svg>
