<svg width="87" height="87" viewBox="0 0 87 87" fill="none" xmlns="http://www.w3.org/2000/svg">
<path d="M81.2344 86.625C71.4913 86.625 61.8082 84.2491 52.1849 79.4974C42.5616 74.7457 33.9167 68.5365 26.25 60.8698C18.5833 53.2031 12.3542 44.5382 7.5625 34.875C2.77083 25.2118 0.375 15.5087 0.375 5.76562C0.375 4.88715 0.414931 3.96875 0.494792 3.01042C0.574653 2.05208 0.694444 1.17361 0.854167 0.375H26.25L31.0417 23.0156L17.026 37.151C21.4983 44.5781 26.5095 51.0469 32.0599 56.5573C37.6102 62.0677 43.8993 66.7396 50.9271 70.5729L64.9427 56.0781L86.625 60.8698V86.2656C85.8264 86.3455 84.9479 86.4253 83.9896 86.5052C83.0312 86.5851 82.1128 86.625 81.2344 86.625ZM13.4323 30.5625L23.1354 20.7396L20.3802 7.5625H7.5625C7.5625 10.6771 8.04167 14.0911 9 17.8047C9.95833 21.5182 11.4358 25.7708 13.4323 30.5625ZM57.6354 74.0469C60.9097 75.5642 64.4635 76.8021 68.2969 77.7604C72.1302 78.7187 75.8437 79.2778 79.4375 79.4375V66.6198L67.099 64.1042L57.6354 74.0469Z" fill="white"/>
</svg>
